<mxfile host="app.diagrams.net" agent="Mozilla/5.0 (X11; Linux x86_64) AppleWebKit/537.36 (KHTML, like Gecko) Chrome/133.0.0.0 Safari/537.36 OPR/118.0.0.0" version="27.0.5">
  <diagram name="Page-1" id="oNwOHs38qYHQ-QEW0pWb">
    <mxGraphModel dx="3283" dy="2122" grid="1" gridSize="10" guides="1" tooltips="1" connect="1" arrows="1" fold="1" page="1" pageScale="1" pageWidth="850" pageHeight="1100" math="0" shadow="0">
      <root>
        <mxCell id="0" />
        <mxCell id="1" parent="0" />
        <mxCell id="mmpQ6fSCnd_DkE4tolCc-57" value="" style="group" vertex="1" connectable="0" parent="1">
          <mxGeometry x="-1360" y="-680" width="400" height="250" as="geometry" />
        </mxCell>
        <mxCell id="mmpQ6fSCnd_DkE4tolCc-2" value="" style="rounded=1;whiteSpace=wrap;html=1;fillColor=none;container=0;" vertex="1" parent="mmpQ6fSCnd_DkE4tolCc-57">
          <mxGeometry width="400" height="250" as="geometry" />
        </mxCell>
        <mxCell id="mmpQ6fSCnd_DkE4tolCc-9" value="DNS cache poisoning" style="ellipse;whiteSpace=wrap;html=1;aspect=fixed;fillColor=#d80073;fontColor=#ffffff;strokeColor=#A50040;container=0;" vertex="1" parent="mmpQ6fSCnd_DkE4tolCc-57">
          <mxGeometry x="160.00333333333333" y="40" width="80" height="80" as="geometry" />
        </mxCell>
        <mxCell id="mmpQ6fSCnd_DkE4tolCc-58" value="" style="group" vertex="1" connectable="0" parent="1">
          <mxGeometry x="-920" y="-400" width="400" height="260" as="geometry" />
        </mxCell>
        <mxCell id="mmpQ6fSCnd_DkE4tolCc-36" value="" style="rounded=1;whiteSpace=wrap;html=1;fillColor=none;container=0;" vertex="1" parent="mmpQ6fSCnd_DkE4tolCc-58">
          <mxGeometry width="400" height="260" as="geometry" />
        </mxCell>
        <mxCell id="mmpQ6fSCnd_DkE4tolCc-43" style="edgeStyle=orthogonalEdgeStyle;rounded=0;orthogonalLoop=1;jettySize=auto;html=1;entryX=0;entryY=0.5;entryDx=0;entryDy=0;" edge="1" parent="mmpQ6fSCnd_DkE4tolCc-58" source="mmpQ6fSCnd_DkE4tolCc-37" target="mmpQ6fSCnd_DkE4tolCc-42">
          <mxGeometry relative="1" as="geometry" />
        </mxCell>
        <mxCell id="mmpQ6fSCnd_DkE4tolCc-37" value="DNS cache poisoning" style="ellipse;whiteSpace=wrap;html=1;aspect=fixed;container=0;" vertex="1" parent="mmpQ6fSCnd_DkE4tolCc-58">
          <mxGeometry x="160.00333333333333" y="39.99666666666678" width="80" height="80" as="geometry" />
        </mxCell>
        <mxCell id="mmpQ6fSCnd_DkE4tolCc-38" style="edgeStyle=orthogonalEdgeStyle;rounded=0;orthogonalLoop=1;jettySize=auto;html=1;entryX=0;entryY=0.5;entryDx=0;entryDy=0;" edge="1" parent="mmpQ6fSCnd_DkE4tolCc-58" source="mmpQ6fSCnd_DkE4tolCc-39" target="mmpQ6fSCnd_DkE4tolCc-37">
          <mxGeometry relative="1" as="geometry" />
        </mxCell>
        <mxCell id="mmpQ6fSCnd_DkE4tolCc-39" value="SSH with existing key" style="ellipse;whiteSpace=wrap;html=1;aspect=fixed;container=0;" vertex="1" parent="mmpQ6fSCnd_DkE4tolCc-58">
          <mxGeometry x="30.00333333333333" y="39.99666666666678" width="80" height="80" as="geometry" />
        </mxCell>
        <mxCell id="mmpQ6fSCnd_DkE4tolCc-42" value="Listen and intercept message" style="ellipse;whiteSpace=wrap;html=1;aspect=fixed;container=0;fillColor=#d80073;fontColor=#ffffff;strokeColor=#A50040;" vertex="1" parent="mmpQ6fSCnd_DkE4tolCc-58">
          <mxGeometry x="290.00333333333333" y="39.99666666666678" width="80" height="80" as="geometry" />
        </mxCell>
        <mxCell id="mmpQ6fSCnd_DkE4tolCc-59" value="" style="group" vertex="1" connectable="0" parent="1">
          <mxGeometry x="-920" y="-680" width="400" height="250" as="geometry" />
        </mxCell>
        <mxCell id="mmpQ6fSCnd_DkE4tolCc-31" value="" style="rounded=1;whiteSpace=wrap;html=1;fillColor=none;container=0;" vertex="1" parent="mmpQ6fSCnd_DkE4tolCc-59">
          <mxGeometry width="400" height="250" as="geometry" />
        </mxCell>
        <mxCell id="mmpQ6fSCnd_DkE4tolCc-32" value="DNS cache poisoning" style="ellipse;whiteSpace=wrap;html=1;aspect=fixed;container=0;" vertex="1" parent="mmpQ6fSCnd_DkE4tolCc-59">
          <mxGeometry x="160.00333333333333" y="40" width="80" height="80" as="geometry" />
        </mxCell>
        <mxCell id="mmpQ6fSCnd_DkE4tolCc-34" style="edgeStyle=orthogonalEdgeStyle;rounded=0;orthogonalLoop=1;jettySize=auto;html=1;entryX=0;entryY=0.5;entryDx=0;entryDy=0;" edge="1" parent="mmpQ6fSCnd_DkE4tolCc-59" source="mmpQ6fSCnd_DkE4tolCc-33" target="mmpQ6fSCnd_DkE4tolCc-32">
          <mxGeometry relative="1" as="geometry" />
        </mxCell>
        <mxCell id="mmpQ6fSCnd_DkE4tolCc-33" value="SSH with existing key" style="ellipse;whiteSpace=wrap;html=1;aspect=fixed;fillColor=#d80073;fontColor=#ffffff;strokeColor=#A50040;container=0;" vertex="1" parent="mmpQ6fSCnd_DkE4tolCc-59">
          <mxGeometry x="30.00333333333333" y="40" width="80" height="80" as="geometry" />
        </mxCell>
        <mxCell id="mmpQ6fSCnd_DkE4tolCc-60" style="edgeStyle=orthogonalEdgeStyle;rounded=0;orthogonalLoop=1;jettySize=auto;html=1;entryX=0;entryY=0.5;entryDx=0;entryDy=0;" edge="1" parent="1" source="mmpQ6fSCnd_DkE4tolCc-2" target="mmpQ6fSCnd_DkE4tolCc-31">
          <mxGeometry relative="1" as="geometry" />
        </mxCell>
        <mxCell id="mmpQ6fSCnd_DkE4tolCc-61" style="edgeStyle=orthogonalEdgeStyle;rounded=0;orthogonalLoop=1;jettySize=auto;html=1;entryX=0.5;entryY=0;entryDx=0;entryDy=0;" edge="1" parent="1" source="mmpQ6fSCnd_DkE4tolCc-31" target="mmpQ6fSCnd_DkE4tolCc-36">
          <mxGeometry relative="1" as="geometry" />
        </mxCell>
        <mxCell id="mmpQ6fSCnd_DkE4tolCc-63" value="" style="group" vertex="1" connectable="0" parent="1">
          <mxGeometry x="-1360" y="-400" width="400" height="260" as="geometry" />
        </mxCell>
        <mxCell id="mmpQ6fSCnd_DkE4tolCc-45" value="" style="rounded=1;whiteSpace=wrap;html=1;fillColor=none;container=0;" vertex="1" parent="mmpQ6fSCnd_DkE4tolCc-63">
          <mxGeometry width="400" height="260" as="geometry" />
        </mxCell>
        <mxCell id="mmpQ6fSCnd_DkE4tolCc-46" style="edgeStyle=orthogonalEdgeStyle;rounded=0;orthogonalLoop=1;jettySize=auto;html=1;entryX=0;entryY=0.5;entryDx=0;entryDy=0;" edge="1" parent="mmpQ6fSCnd_DkE4tolCc-63" source="mmpQ6fSCnd_DkE4tolCc-47" target="mmpQ6fSCnd_DkE4tolCc-50">
          <mxGeometry relative="1" as="geometry" />
        </mxCell>
        <mxCell id="mmpQ6fSCnd_DkE4tolCc-47" value="DNS cache poisoning" style="ellipse;whiteSpace=wrap;html=1;aspect=fixed;container=0;" vertex="1" parent="mmpQ6fSCnd_DkE4tolCc-63">
          <mxGeometry x="160.00333333333333" y="40" width="80" height="80" as="geometry" />
        </mxCell>
        <mxCell id="mmpQ6fSCnd_DkE4tolCc-48" style="edgeStyle=orthogonalEdgeStyle;rounded=0;orthogonalLoop=1;jettySize=auto;html=1;entryX=0;entryY=0.5;entryDx=0;entryDy=0;" edge="1" parent="mmpQ6fSCnd_DkE4tolCc-63" source="mmpQ6fSCnd_DkE4tolCc-49" target="mmpQ6fSCnd_DkE4tolCc-47">
          <mxGeometry relative="1" as="geometry" />
        </mxCell>
        <mxCell id="mmpQ6fSCnd_DkE4tolCc-49" value="SSH with existing key" style="ellipse;whiteSpace=wrap;html=1;aspect=fixed;container=0;" vertex="1" parent="mmpQ6fSCnd_DkE4tolCc-63">
          <mxGeometry x="30.00333333333333" y="40" width="80" height="80" as="geometry" />
        </mxCell>
        <mxCell id="mmpQ6fSCnd_DkE4tolCc-50" value="Listen and intercept message" style="ellipse;whiteSpace=wrap;html=1;aspect=fixed;container=0;" vertex="1" parent="mmpQ6fSCnd_DkE4tolCc-63">
          <mxGeometry x="290.00333333333333" y="40" width="80" height="80" as="geometry" />
        </mxCell>
        <mxCell id="mmpQ6fSCnd_DkE4tolCc-51" value="Telnet bruteforce on C2" style="ellipse;whiteSpace=wrap;html=1;aspect=fixed;container=0;fillColor=#d80073;fontColor=#ffffff;strokeColor=#A50040;" vertex="1" parent="mmpQ6fSCnd_DkE4tolCc-63">
          <mxGeometry x="160.00333333333333" y="140" width="80" height="80" as="geometry" />
        </mxCell>
        <mxCell id="mmpQ6fSCnd_DkE4tolCc-53" value="" style="endArrow=classic;html=1;rounded=0;exitX=0.808;exitY=0.887;exitDx=0;exitDy=0;exitPerimeter=0;entryX=0.117;entryY=0.188;entryDx=0;entryDy=0;entryPerimeter=0;" edge="1" parent="mmpQ6fSCnd_DkE4tolCc-63" source="mmpQ6fSCnd_DkE4tolCc-49" target="mmpQ6fSCnd_DkE4tolCc-51">
          <mxGeometry width="50" height="50" relative="1" as="geometry">
            <mxPoint x="50" y="220" as="sourcePoint" />
            <mxPoint x="100" y="170" as="targetPoint" />
          </mxGeometry>
        </mxCell>
        <mxCell id="mmpQ6fSCnd_DkE4tolCc-54" value="" style="endArrow=classic;html=1;rounded=0;exitX=0.917;exitY=0.241;exitDx=0;exitDy=0;exitPerimeter=0;entryX=0.214;entryY=0.898;entryDx=0;entryDy=0;entryPerimeter=0;" edge="1" parent="mmpQ6fSCnd_DkE4tolCc-63" source="mmpQ6fSCnd_DkE4tolCc-51" target="mmpQ6fSCnd_DkE4tolCc-50">
          <mxGeometry width="50" height="50" relative="1" as="geometry">
            <mxPoint x="105" y="121" as="sourcePoint" />
            <mxPoint x="179" y="165" as="targetPoint" />
          </mxGeometry>
        </mxCell>
        <mxCell id="mmpQ6fSCnd_DkE4tolCc-64" style="edgeStyle=orthogonalEdgeStyle;rounded=0;orthogonalLoop=1;jettySize=auto;html=1;entryX=1;entryY=0.5;entryDx=0;entryDy=0;" edge="1" parent="1" source="mmpQ6fSCnd_DkE4tolCc-36" target="mmpQ6fSCnd_DkE4tolCc-45">
          <mxGeometry relative="1" as="geometry" />
        </mxCell>
        <mxCell id="mmpQ6fSCnd_DkE4tolCc-66" value="1." style="rounded=1;whiteSpace=wrap;html=1;" vertex="1" parent="1">
          <mxGeometry x="-1320" y="-700" width="30" height="20" as="geometry" />
        </mxCell>
        <mxCell id="mmpQ6fSCnd_DkE4tolCc-67" value="2." style="rounded=1;whiteSpace=wrap;html=1;" vertex="1" parent="1">
          <mxGeometry x="-880" y="-700" width="30" height="20" as="geometry" />
        </mxCell>
        <mxCell id="mmpQ6fSCnd_DkE4tolCc-68" value="3." style="rounded=1;whiteSpace=wrap;html=1;" vertex="1" parent="1">
          <mxGeometry x="-880" y="-420" width="30" height="20" as="geometry" />
        </mxCell>
        <mxCell id="mmpQ6fSCnd_DkE4tolCc-69" value="4." style="rounded=1;whiteSpace=wrap;html=1;" vertex="1" parent="1">
          <mxGeometry x="-1320" y="-420" width="30" height="20" as="geometry" />
        </mxCell>
      </root>
    </mxGraphModel>
  </diagram>
</mxfile>
